<?xml version="1.0" standalone="no"?><!DOCTYPE svg PUBLIC "-//W3C//DTD SVG 1.1//EN" "http://www.w3.org/Graphics/SVG/1.1/DTD/svg11.dtd"><svg t="1719899635834" class="icon" viewBox="0 0 1024 1024" version="1.1" xmlns="http://www.w3.org/2000/svg" p-id="4230" xmlns:xlink="http://www.w3.org/1999/xlink" width="64" height="64"><path d="M921.6 0H102.4C46.08 0 0 46.08 0 102.4v819.2c0 56.32 46.08 102.4 102.4 102.4h819.2c56.32 0 102.4-46.08 102.4-102.4V102.4c0-56.32-46.08-102.4-102.4-102.4zM716.8 358.4V409.6c0 30.72 20.48 51.2 51.2 51.2S819.2 481.28 819.2 512v153.6c0 87.04-66.56 153.6-153.6 153.6h-307.2c-87.04 0-153.6-66.56-153.6-153.6V307.2c0-87.04 66.56-153.6 153.6-153.6h204.8c87.04 0 153.6 66.56 153.6 153.6v51.2zM409.6 409.6h133.12c30.72 0 51.2-20.48 51.2-51.2S573.44 307.2 542.72 307.2H409.6c-30.72 0-51.2 20.48-51.2 51.2S378.88 409.6 409.6 409.6z m204.8 153.6H409.6c-30.72 0-51.2 20.48-51.2 51.2s20.48 51.2 51.2 51.2h204.8c30.72 0 51.2-20.48 51.2-51.2s-20.48-51.2-51.2-51.2z" p-id="4231"></path></svg>